<svg xmlns="http://www.w3.org/2000/svg" width="1110" height="938" viewBox="0 0 1110 938">
  <defs>
    <linearGradient id="g1" x1="0" y1="0" x2="1" y2="0">
      <stop offset="0%" stop-color="#03497a"/>
      <stop offset="100%" stop-color="#0b8cbe"/>
    </linearGradient>
  </defs>
  <path d="M 225.0 932.5 L 18.0 932.5 L 5.5 930.0 L 4.5 8.0 L 7.0 4.5 L 379.0 4.5 L 434.0 11.5 L 460.0 17.5 L 502.0 31.5 L 533.0 45.5 L 577.0 73.5 L 612.0 103.5 L 635.5 128.0 L 657.5 157.0 L 679.5 194.0 L 695.5 229.0 L 707.5 269.0 L 717.5 329.0 L 717.5 386.0 L 711.5 425.0 L 703.5 456.0 L 694.5 484.0 L 664.5 541.0 L 638.5 575.0 L 610.0 603.5 L 573.0 633.5 L 532.0 657.5 L 496.0 673.5 L 456.0 686.5 L 422.0 694.5 L 383.0 698.5 L 240.0 698.5 L 237.5 701.0 L 237.5 930.0 L 225.0 932.5 Z M 990.0 932.5 L 823.0 932.5 L 819.5 929.0 L 819.5 708.0 L 817.0 705.5 L 625.0 705.5 L 621.5 710.0 L 621.5 931.0 L 455.0 932.5 L 451.5 930.0 L 451.5 724.0 L 482.0 715.5 L 528.0 698.5 L 559.0 682.5 L 593.0 660.5 L 629.0 631.5 L 658.5 602.0 L 698.0 550.5 L 818.0 550.5 L 820.5 548.0 L 819.5 290.0 L 726.5 221.0 L 715.5 191.0 L 685.5 137.0 L 663.5 108.0 L 640.5 84.0 L 666.0 60.5 L 817.0 174.5 L 819.5 172.0 L 819.5 49.0 L 822.0 46.5 L 849.0 45.5 L 942.0 46.5 L 944.5 61.0 L 944.5 271.0 L 1104.5 393.0 L 1101.0 395.5 L 996.0 395.5 L 992.5 402.0 L 992.5 930.0 L 990.0 932.5 Z M 289.5 513.0 L 430.0 512.5 L 432.5 510.0 L 393.5 355.0 L 413.0 340.5 L 431.5 318.0 L 441.5 287.0 L 439.5 258.0 L 429.5 234.0 L 419.5 220.0 L 400.0 203.5 L 379.0 194.5 L 364.0 191.5 L 348.0 191.5 L 328.0 195.5 L 310.0 203.5 L 299.0 210.5 L 285.5 224.0 L 274.5 243.0 L 269.5 257.0 L 267.5 288.0 L 275.5 315.0 L 284.5 330.0 L 298.0 343.5 L 314.5 355.0 L 278.5 509.0 L 281.0 513.5 L 289.5 513.0 Z" fill="url(#g1)" fill-rule="evenodd"/>
</svg>
